<svg width="128" height="128" viewBox="0 0 128 128" fill="none" 
    xmlns="http://www.w3.org/2000/svg">
    <rect x="2" y="2" width="126" height="126" fill="white"/>
    <path d="M39.4384 84.512C31.1824 78.56 27.0544 70.176 27.0544 59.36C27.0544 48.48 30.0624 39.648 36.0784 32.864C42.1584 26.08 51.5344 22.688 64.2064 22.688C69.5184 22.688 74.2864 23.552 78.5104 25.28C82.7984 27.008 86.1584 29.152 88.5904 31.712C91.0864 34.208 93.1664 37.088 94.8304 40.352C97.6464 45.792 99.0544 51.04 99.0544 56.096C99.0544 61.088 98.2864 65.888 96.7504 70.496C95.2144 75.04 92.8144 79.168 89.5504 82.88C86.3504 86.528 82.5744 88.96 78.2224 90.176C73.8704 91.392 71.6944 92.096 71.6944 92.288C71.6944 92.992 72.3024 93.6 73.5184 94.112C74.3504 94.496 76.4944 95.456 79.9504 96.992C83.4064 98.528 85.5504 99.456 86.3824 99.776C87.2784 100.096 88.4624 100.544 89.9344 101.12C91.4064 101.696 92.6224 102.112 93.5824 102.368C94.6064 102.688 95.7264 103.008 96.9424 103.328C99.1184 103.904 101.134 104.192 102.99 104.192C104.846 104.192 106.318 103.904 107.406 103.328C108.494 102.816 109.326 102.304 109.902 101.792C110.542 101.28 111.086 101.024 111.534 101.024C111.982 101.024 112.302 101.152 112.494 101.408C112.75 101.728 112.878 101.984 112.878 102.176C112.878 104.416 111.15 106.368 107.694 108.032C104.238 109.76 100.43 110.624 96.2704 110.624C92.1744 110.624 86.4464 108.992 79.0864 105.728C71.7904 102.464 64.9104 99.2 58.4464 95.936C52.0464 92.672 47.8864 91.04 45.9664 91.04C43.0224 91.04 40.8464 92.064 39.4384 94.112C38.0304 96.16 37.3264 98.528 37.3264 101.216V102.944C37.3264 104.608 36.7504 105.44 35.5984 105.44C34.9584 105.44 34.4144 105.024 33.9664 104.192C33.5184 103.36 33.2944 102.432 33.2944 101.408C33.2944 98.592 33.9344 95.936 35.2144 93.44C36.4944 90.944 37.8704 89.184 39.3424 88.16C40.8144 87.072 41.5504 86.464 41.5504 86.336C41.5504 86.08 40.8464 85.472 39.4384 84.512ZM60.9424 26.528C53.9024 26.528 47.9504 28.896 43.0864 33.632C38.2224 38.368 35.7904 45.216 35.7904 54.176C35.7904 63.136 38.1584 70.88 42.8944 77.408C45.3904 80.928 48.9424 83.808 53.5504 86.048C58.2224 88.224 62.5424 89.312 66.5104 89.312C70.4784 89.312 74.8304 88.096 79.5664 85.664C82.2544 84.256 84.9104 81.504 87.5344 77.408C90.2224 73.248 91.5664 68.512 91.5664 63.2C91.5664 52.896 88.5904 44.224 82.6384 37.184C76.6864 30.08 69.4544 26.528 60.9424 26.528Z" fill="black"/>
</svg>
